<svg width="284" height="144" viewBox="0 0 284 144" fill="none" xmlns="http://www.w3.org/2000/svg">
<rect width="284" height="144" fill="white"/>
<g clip-path="url(#clip0_9_8)">
<path fill-rule="evenodd" clip-rule="evenodd" d="M81.7123 69.7771L78 72.1086L99 85.2971L120 72.1086L116.288 69.7771L99 80.6343L81.7123 69.7771Z" fill="#7B65FF" fill-opacity="0.65"/>
<path fill-rule="evenodd" clip-rule="evenodd" d="M81.7123 76.48L78 78.8115L99 92L120 78.8115L116.288 76.48L99 87.3372L81.7123 76.48Z" fill="#7B65FF" fill-opacity="0.4"/>
<path fill-rule="evenodd" clip-rule="evenodd" d="M113.537 65.1886L99 56.0587L84.4626 65.1886L99 74.3184L113.537 65.1886ZM99 52L78 65.1886L99 78.3771L120 65.1886L99 52Z" fill="#7B65FF"/>
</g>
<path d="M134.24 83V62.84H137.614V79.836H146.518V83H134.24ZM153.118 83.42C152.026 83.42 151.102 83.2147 150.346 82.804C149.59 82.384 149.016 81.8287 148.624 81.138C148.241 80.4473 148.05 79.6867 148.05 78.856C148.05 78.128 148.171 77.4747 148.414 76.896C148.656 76.308 149.03 75.804 149.534 75.384C150.038 74.9547 150.691 74.6047 151.494 74.334C152.1 74.138 152.81 73.9607 153.622 73.802C154.443 73.6433 155.33 73.4987 156.282 73.368C157.243 73.228 158.246 73.0787 159.292 72.92L158.088 73.606C158.097 72.5607 157.864 71.7907 157.388 71.296C156.912 70.8013 156.109 70.554 154.98 70.554C154.298 70.554 153.64 70.7127 153.006 71.03C152.371 71.3473 151.928 71.8933 151.676 72.668L148.596 71.702C148.969 70.4233 149.678 69.3967 150.724 68.622C151.778 67.8473 153.197 67.46 154.98 67.46C156.324 67.46 157.504 67.6793 158.522 68.118C159.548 68.5567 160.309 69.2753 160.804 70.274C161.074 70.806 161.238 71.352 161.294 71.912C161.35 72.4627 161.378 73.0647 161.378 73.718V83H158.424V79.724L158.914 80.256C158.232 81.348 157.434 82.1507 156.52 82.664C155.614 83.168 154.48 83.42 153.118 83.42ZM153.79 80.732C154.555 80.732 155.208 80.5967 155.75 80.326C156.291 80.0553 156.72 79.724 157.038 79.332C157.364 78.94 157.584 78.5713 157.696 78.226C157.873 77.7967 157.971 77.3067 157.99 76.756C158.018 76.196 158.032 75.7433 158.032 75.398L159.068 75.706C158.05 75.8647 157.178 76.0047 156.45 76.126C155.722 76.2473 155.096 76.364 154.574 76.476C154.051 76.5787 153.589 76.6953 153.188 76.826C152.796 76.966 152.464 77.1293 152.194 77.316C151.923 77.5027 151.713 77.7173 151.564 77.96C151.424 78.2027 151.354 78.4873 151.354 78.814C151.354 79.1873 151.447 79.5187 151.634 79.808C151.82 80.088 152.091 80.312 152.446 80.48C152.81 80.648 153.258 80.732 153.79 80.732ZM166.163 89.72L169.075 81.726L169.131 84.078L162.537 67.88H166.051L170.727 79.864H169.831L174.381 67.88H177.755L169.327 89.72H166.163ZM186.17 83.42C184.639 83.42 183.295 83.0887 182.138 82.426C180.981 81.7633 180.075 80.844 179.422 79.668C178.778 78.492 178.456 77.1387 178.456 75.608C178.456 73.956 178.773 72.5233 179.408 71.31C180.043 70.0873 180.925 69.14 182.054 68.468C183.183 67.796 184.49 67.46 185.974 67.46C187.542 67.46 188.872 67.8287 189.964 68.566C191.065 69.294 191.882 70.3253 192.414 71.66C192.946 72.9947 193.147 74.5673 193.016 76.378H189.67V75.146C189.661 73.5033 189.371 72.304 188.802 71.548C188.233 70.792 187.337 70.414 186.114 70.414C184.733 70.414 183.706 70.8433 183.034 71.702C182.362 72.5513 182.026 73.7973 182.026 75.44C182.026 76.9707 182.362 78.156 183.034 78.996C183.706 79.836 184.686 80.256 185.974 80.256C186.805 80.256 187.519 80.074 188.116 79.71C188.723 79.3367 189.189 78.8 189.516 78.1L192.848 79.108C192.269 80.4707 191.373 81.53 190.16 82.286C188.956 83.042 187.626 83.42 186.17 83.42ZM180.962 76.378V73.83H191.364V76.378H180.962ZM196.14 83V67.88H199.122V71.562L198.758 71.086C198.944 70.582 199.192 70.1247 199.5 69.714C199.817 69.294 200.195 68.9487 200.634 68.678C201.007 68.426 201.418 68.23 201.866 68.09C202.323 67.9407 202.79 67.852 203.266 67.824C203.742 67.7867 204.204 67.8053 204.652 67.88V71.03C204.204 70.8993 203.686 70.8573 203.098 70.904C202.519 70.9507 201.996 71.114 201.53 71.394C201.063 71.646 200.68 71.968 200.382 72.36C200.092 72.752 199.878 73.2 199.738 73.704C199.598 74.1987 199.528 74.7353 199.528 75.314V83H196.14Z" fill="black"/>
<defs>
<clipPath id="clip0_9_8">
<rect width="42" height="40" fill="white" transform="translate(78 52)"/>
</clipPath>
</defs>
</svg>
