<svg width="284" height="72" viewBox="0 0 284 72" fill="none" xmlns="http://www.w3.org/2000/svg">
<rect width="284" height="72" fill="white"/>
<g clip-path="url(#clip0_9_8)">
<path fill-rule="evenodd" clip-rule="evenodd" d="M81.7123 33.7771L78 36.1086L99 49.2971L120 36.1086L116.288 33.7771L99 44.6343L81.7123 33.7771Z" fill="#7B65FF" fill-opacity="0.65"/>
<path fill-rule="evenodd" clip-rule="evenodd" d="M81.7123 40.48L78 42.8115L99 56L120 42.8115L116.288 40.48L99 51.3372L81.7123 40.48Z" fill="#7B65FF" fill-opacity="0.4"/>
<path fill-rule="evenodd" clip-rule="evenodd" d="M113.537 29.1886L99 20.0587L84.4626 29.1886L99 38.3184L113.537 29.1886ZM99 16L78 29.1886L99 42.3771L120 29.1886L99 16Z" fill="#7B65FF"/>
</g>
<path d="M134.24 47V26.84H137.614V43.836H146.518V47H134.24ZM153.118 47.42C152.026 47.42 151.102 47.2147 150.346 46.804C149.59 46.384 149.016 45.8287 148.624 45.138C148.241 44.4473 148.05 43.6867 148.05 42.856C148.05 42.128 148.171 41.4747 148.414 40.896C148.656 40.308 149.03 39.804 149.534 39.384C150.038 38.9547 150.691 38.6047 151.494 38.334C152.1 38.138 152.81 37.9607 153.622 37.802C154.443 37.6433 155.33 37.4987 156.282 37.368C157.243 37.228 158.246 37.0787 159.292 36.92L158.088 37.606C158.097 36.5607 157.864 35.7907 157.388 35.296C156.912 34.8013 156.109 34.554 154.98 34.554C154.298 34.554 153.64 34.7127 153.006 35.03C152.371 35.3473 151.928 35.8933 151.676 36.668L148.596 35.702C148.969 34.4233 149.678 33.3967 150.724 32.622C151.778 31.8473 153.197 31.46 154.98 31.46C156.324 31.46 157.504 31.6793 158.522 32.118C159.548 32.5567 160.309 33.2753 160.804 34.274C161.074 34.806 161.238 35.352 161.294 35.912C161.35 36.4627 161.378 37.0647 161.378 37.718V47H158.424V43.724L158.914 44.256C158.232 45.348 157.434 46.1507 156.52 46.664C155.614 47.168 154.48 47.42 153.118 47.42ZM153.79 44.732C154.555 44.732 155.208 44.5967 155.75 44.326C156.291 44.0553 156.72 43.724 157.038 43.332C157.364 42.94 157.584 42.5713 157.696 42.226C157.873 41.7967 157.971 41.3067 157.99 40.756C158.018 40.196 158.032 39.7433 158.032 39.398L159.068 39.706C158.05 39.8647 157.178 40.0047 156.45 40.126C155.722 40.2473 155.096 40.364 154.574 40.476C154.051 40.5787 153.589 40.6953 153.188 40.826C152.796 40.966 152.464 41.1293 152.194 41.316C151.923 41.5027 151.713 41.7173 151.564 41.96C151.424 42.2027 151.354 42.4873 151.354 42.814C151.354 43.1873 151.447 43.5187 151.634 43.808C151.82 44.088 152.091 44.312 152.446 44.48C152.81 44.648 153.258 44.732 153.79 44.732ZM166.163 53.72L169.075 45.726L169.131 48.078L162.537 31.88H166.051L170.727 43.864H169.831L174.381 31.88H177.755L169.327 53.72H166.163ZM186.17 47.42C184.639 47.42 183.295 47.0887 182.138 46.426C180.981 45.7633 180.075 44.844 179.422 43.668C178.778 42.492 178.456 41.1387 178.456 39.608C178.456 37.956 178.773 36.5233 179.408 35.31C180.043 34.0873 180.925 33.14 182.054 32.468C183.183 31.796 184.49 31.46 185.974 31.46C187.542 31.46 188.872 31.8287 189.964 32.566C191.065 33.294 191.882 34.3253 192.414 35.66C192.946 36.9947 193.147 38.5673 193.016 40.378H189.67V39.146C189.661 37.5033 189.371 36.304 188.802 35.548C188.233 34.792 187.337 34.414 186.114 34.414C184.733 34.414 183.706 34.8433 183.034 35.702C182.362 36.5513 182.026 37.7973 182.026 39.44C182.026 40.9707 182.362 42.156 183.034 42.996C183.706 43.836 184.686 44.256 185.974 44.256C186.805 44.256 187.519 44.074 188.116 43.71C188.723 43.3367 189.189 42.8 189.516 42.1L192.848 43.108C192.269 44.4707 191.373 45.53 190.16 46.286C188.956 47.042 187.626 47.42 186.17 47.42ZM180.962 40.378V37.83H191.364V40.378H180.962ZM196.14 47V31.88H199.122V35.562L198.758 35.086C198.944 34.582 199.192 34.1247 199.5 33.714C199.817 33.294 200.195 32.9487 200.634 32.678C201.007 32.426 201.418 32.23 201.866 32.09C202.323 31.9407 202.79 31.852 203.266 31.824C203.742 31.7867 204.204 31.8053 204.652 31.88V35.03C204.204 34.8993 203.686 34.8573 203.098 34.904C202.519 34.9507 201.996 35.114 201.53 35.394C201.063 35.646 200.68 35.968 200.382 36.36C200.092 36.752 199.878 37.2 199.738 37.704C199.598 38.1987 199.528 38.7353 199.528 39.314V47H196.14Z" fill="black"/>
<defs>
<clipPath id="clip0_9_8">
<rect width="42" height="40" fill="white" transform="translate(78 16)"/>
</clipPath>
</defs>
</svg>
